G04 #@! TF.GenerationSoftware,KiCad,Pcbnew,(6.0.7)*
G04 #@! TF.CreationDate,2022-09-10T18:50:33+02:00*
G04 #@! TF.ProjectId,chococorne,63686f63-6f63-46f7-926e-652e6b696361,2.1*
G04 #@! TF.SameCoordinates,Original*
G04 #@! TF.FileFunction,Legend,Bot*
G04 #@! TF.FilePolarity,Positive*
%FSLAX46Y46*%
G04 Gerber Fmt 4.6, Leading zero omitted, Abs format (unit mm)*
G04 Created by KiCad (PCBNEW (6.0.7)) date 2022-09-10 18:50:33*
%MOMM*%
%LPD*%
G01*
G04 APERTURE LIST*
%ADD10C,0.150000*%
%ADD11C,0.120000*%
G04 APERTURE END LIST*
D10*
X180998880Y-97582595D02*
X180998880Y-98154023D01*
X181998880Y-97868309D02*
X180998880Y-97868309D01*
X181998880Y-99058785D02*
X181522690Y-98725452D01*
X181998880Y-98487357D02*
X180998880Y-98487357D01*
X180998880Y-98868309D01*
X181046500Y-98963547D01*
X181094119Y-99011166D01*
X181189357Y-99058785D01*
X181332214Y-99058785D01*
X181427452Y-99011166D01*
X181475071Y-98963547D01*
X181522690Y-98868309D01*
X181522690Y-98487357D01*
X181998880Y-100058785D02*
X181522690Y-99725452D01*
X181998880Y-99487357D02*
X180998880Y-99487357D01*
X180998880Y-99868309D01*
X181046500Y-99963547D01*
X181094119Y-100011166D01*
X181189357Y-100058785D01*
X181332214Y-100058785D01*
X181427452Y-100011166D01*
X181475071Y-99963547D01*
X181522690Y-99868309D01*
X181522690Y-99487357D01*
X181951261Y-100439738D02*
X181998880Y-100582595D01*
X181998880Y-100820690D01*
X181951261Y-100915928D01*
X181903642Y-100963547D01*
X181808404Y-101011166D01*
X181713166Y-101011166D01*
X181617928Y-100963547D01*
X181570309Y-100915928D01*
X181522690Y-100820690D01*
X181475071Y-100630214D01*
X181427452Y-100534976D01*
X181379833Y-100487357D01*
X181284595Y-100439738D01*
X181189357Y-100439738D01*
X181094119Y-100487357D01*
X181046500Y-100534976D01*
X180998880Y-100630214D01*
X180998880Y-100868309D01*
X181046500Y-101011166D01*
X183064335Y-121552787D02*
X183034146Y-121700314D01*
X182915099Y-121906511D01*
X182826240Y-121965180D01*
X182761191Y-121982610D01*
X182654903Y-121976230D01*
X182572425Y-121928611D01*
X182513756Y-121839753D01*
X182496326Y-121774704D01*
X182502706Y-121668416D01*
X182556704Y-121479649D01*
X182563084Y-121373361D01*
X182545654Y-121308312D01*
X182486985Y-121219454D01*
X182404507Y-121171834D01*
X182298218Y-121165455D01*
X182233170Y-121182885D01*
X182144311Y-121241554D01*
X182025264Y-121447750D01*
X181995074Y-121595278D01*
X181787168Y-121860143D02*
X182534146Y-122566340D01*
X181820319Y-122374154D01*
X182343670Y-122896254D01*
X181358597Y-122602451D01*
X181274409Y-122938745D02*
X181209360Y-122956175D01*
X181120502Y-123014844D01*
X181001454Y-123221040D01*
X180995074Y-123327328D01*
X181012504Y-123392377D01*
X181071173Y-123481236D01*
X181153652Y-123528855D01*
X181301179Y-123559044D01*
X182081765Y-123349887D01*
X181772241Y-123885997D01*
X181296051Y-124710784D02*
X181581765Y-124215912D01*
X181438908Y-124463348D02*
X180572883Y-123963348D01*
X180744220Y-123952298D01*
X180874317Y-123917438D01*
X180963176Y-123858769D01*
X179132380Y-86792380D02*
X178941904Y-86792380D01*
X178846666Y-86840000D01*
X178751428Y-86935238D01*
X178703809Y-87125714D01*
X178703809Y-87459047D01*
X178751428Y-87649523D01*
X178846666Y-87744761D01*
X178941904Y-87792380D01*
X179132380Y-87792380D01*
X179227619Y-87744761D01*
X179322857Y-87649523D01*
X179370476Y-87459047D01*
X179370476Y-87125714D01*
X179322857Y-86935238D01*
X179227619Y-86840000D01*
X179132380Y-86792380D01*
X177799047Y-87792380D02*
X178275238Y-87792380D01*
X178275238Y-86792380D01*
X177465714Y-87268571D02*
X177132380Y-87268571D01*
X176989523Y-87792380D02*
X177465714Y-87792380D01*
X177465714Y-86792380D01*
X176989523Y-86792380D01*
X176560952Y-87792380D02*
X176560952Y-86792380D01*
X176322857Y-86792380D01*
X176180000Y-86840000D01*
X176084761Y-86935238D01*
X176037142Y-87030476D01*
X175989523Y-87220952D01*
X175989523Y-87363809D01*
X176037142Y-87554285D01*
X176084761Y-87649523D01*
X176180000Y-87744761D01*
X176322857Y-87792380D01*
X176560952Y-87792380D01*
X176034895Y-82932266D02*
X176847695Y-83203200D01*
X176034895Y-83474133D01*
X176770285Y-84209523D02*
X176808990Y-84170819D01*
X176847695Y-84054704D01*
X176847695Y-83977295D01*
X176808990Y-83861180D01*
X176731580Y-83783771D01*
X176654171Y-83745066D01*
X176499352Y-83706361D01*
X176383238Y-83706361D01*
X176228419Y-83745066D01*
X176151009Y-83783771D01*
X176073600Y-83861180D01*
X176034895Y-83977295D01*
X176034895Y-84054704D01*
X176073600Y-84170819D01*
X176112304Y-84209523D01*
X176770285Y-85022323D02*
X176808990Y-84983619D01*
X176847695Y-84867504D01*
X176847695Y-84790095D01*
X176808990Y-84673980D01*
X176731580Y-84596571D01*
X176654171Y-84557866D01*
X176499352Y-84519161D01*
X176383238Y-84519161D01*
X176228419Y-84557866D01*
X176151009Y-84596571D01*
X176073600Y-84673980D01*
X176034895Y-84790095D01*
X176034895Y-84867504D01*
X176073600Y-84983619D01*
X176112304Y-85022323D01*
X173523600Y-83426323D02*
X173484895Y-83348914D01*
X173484895Y-83232800D01*
X173523600Y-83116685D01*
X173601009Y-83039276D01*
X173678419Y-83000571D01*
X173833238Y-82961866D01*
X173949352Y-82961866D01*
X174104171Y-83000571D01*
X174181580Y-83039276D01*
X174258990Y-83116685D01*
X174297695Y-83232800D01*
X174297695Y-83310209D01*
X174258990Y-83426323D01*
X174220285Y-83465028D01*
X173949352Y-83465028D01*
X173949352Y-83310209D01*
X174297695Y-83813371D02*
X173484895Y-83813371D01*
X174297695Y-84277828D01*
X173484895Y-84277828D01*
X174297695Y-84664876D02*
X173484895Y-84664876D01*
X173484895Y-84858400D01*
X173523600Y-84974514D01*
X173601009Y-85051923D01*
X173678419Y-85090628D01*
X173833238Y-85129333D01*
X173949352Y-85129333D01*
X174104171Y-85090628D01*
X174181580Y-85051923D01*
X174258990Y-84974514D01*
X174297695Y-84858400D01*
X174297695Y-84664876D01*
X181968990Y-83288666D02*
X182007695Y-83404780D01*
X182007695Y-83598304D01*
X181968990Y-83675714D01*
X181930285Y-83714419D01*
X181852876Y-83753123D01*
X181775466Y-83753123D01*
X181698057Y-83714419D01*
X181659352Y-83675714D01*
X181620647Y-83598304D01*
X181581942Y-83443485D01*
X181543238Y-83366076D01*
X181504533Y-83327371D01*
X181427123Y-83288666D01*
X181349714Y-83288666D01*
X181272304Y-83327371D01*
X181233600Y-83366076D01*
X181194895Y-83443485D01*
X181194895Y-83637009D01*
X181233600Y-83753123D01*
X182007695Y-84101466D02*
X181194895Y-84101466D01*
X181194895Y-84294990D01*
X181233600Y-84411104D01*
X181311009Y-84488514D01*
X181388419Y-84527219D01*
X181543238Y-84565923D01*
X181659352Y-84565923D01*
X181814171Y-84527219D01*
X181891580Y-84488514D01*
X181968990Y-84411104D01*
X182007695Y-84294990D01*
X182007695Y-84101466D01*
X181775466Y-84875561D02*
X181775466Y-85262609D01*
X182007695Y-84798152D02*
X181194895Y-85069085D01*
X182007695Y-85340019D01*
X179388990Y-83018380D02*
X179427695Y-83134495D01*
X179427695Y-83328019D01*
X179388990Y-83405428D01*
X179350285Y-83444133D01*
X179272876Y-83482838D01*
X179195466Y-83482838D01*
X179118057Y-83444133D01*
X179079352Y-83405428D01*
X179040647Y-83328019D01*
X179001942Y-83173200D01*
X178963238Y-83095790D01*
X178924533Y-83057085D01*
X178847123Y-83018380D01*
X178769714Y-83018380D01*
X178692304Y-83057085D01*
X178653600Y-83095790D01*
X178614895Y-83173200D01*
X178614895Y-83366723D01*
X178653600Y-83482838D01*
X179350285Y-84295638D02*
X179388990Y-84256933D01*
X179427695Y-84140819D01*
X179427695Y-84063409D01*
X179388990Y-83947295D01*
X179311580Y-83869885D01*
X179234171Y-83831180D01*
X179079352Y-83792476D01*
X178963238Y-83792476D01*
X178808419Y-83831180D01*
X178731009Y-83869885D01*
X178653600Y-83947295D01*
X178614895Y-84063409D01*
X178614895Y-84140819D01*
X178653600Y-84256933D01*
X178692304Y-84295638D01*
X179427695Y-85031028D02*
X179427695Y-84643980D01*
X178614895Y-84643980D01*
X178823857Y-65774380D02*
X179157190Y-65298190D01*
X179395285Y-65774380D02*
X179395285Y-64774380D01*
X179014333Y-64774380D01*
X178919095Y-64822000D01*
X178871476Y-64869619D01*
X178823857Y-64964857D01*
X178823857Y-65107714D01*
X178871476Y-65202952D01*
X178919095Y-65250571D01*
X179014333Y-65298190D01*
X179395285Y-65298190D01*
X178490523Y-64774380D02*
X177823857Y-64774380D01*
X178490523Y-65774380D01*
X177823857Y-65774380D01*
X176919095Y-65774380D02*
X177490523Y-65774380D01*
X177204809Y-65774380D02*
X177204809Y-64774380D01*
X177300047Y-64917238D01*
X177395285Y-65012476D01*
X177490523Y-65060095D01*
X94000000Y-66740000D02*
X95500000Y-66740000D01*
X94750000Y-63640000D02*
X95250000Y-64540000D01*
X95500000Y-66740000D02*
X95500000Y-61340000D01*
X95250000Y-63540000D02*
X94250000Y-63540000D01*
X95250000Y-64540000D02*
X94250000Y-64540000D01*
X94000000Y-61340000D02*
X94000000Y-66740000D01*
X95500000Y-61340000D02*
X94000000Y-61340000D01*
X94250000Y-64540000D02*
X94750000Y-63640000D01*
X113530000Y-55380000D02*
X112530000Y-55380000D01*
X112530000Y-56380000D02*
X113030000Y-55480000D01*
X113780000Y-53180000D02*
X112280000Y-53180000D01*
X112280000Y-53180000D02*
X112280000Y-58580000D01*
X112280000Y-58580000D02*
X113780000Y-58580000D01*
X113030000Y-55480000D02*
X113530000Y-56380000D01*
X113780000Y-58580000D02*
X113780000Y-53180000D01*
X113530000Y-56380000D02*
X112530000Y-56380000D01*
X131560000Y-58580000D02*
X131560000Y-53180000D01*
X130060000Y-53180000D02*
X130060000Y-58580000D01*
X130310000Y-56380000D02*
X130810000Y-55480000D01*
X131560000Y-53180000D02*
X130060000Y-53180000D01*
X131310000Y-55380000D02*
X130310000Y-55380000D01*
X130810000Y-55480000D02*
X131310000Y-56380000D01*
X130060000Y-58580000D02*
X131560000Y-58580000D01*
X131310000Y-56380000D02*
X130310000Y-56380000D01*
X149640000Y-58720000D02*
X149640000Y-53320000D01*
X148140000Y-53320000D02*
X148140000Y-58720000D01*
X149390000Y-56520000D02*
X148390000Y-56520000D01*
X148140000Y-58720000D02*
X149640000Y-58720000D01*
X148890000Y-55620000D02*
X149390000Y-56520000D01*
X149640000Y-53320000D02*
X148140000Y-53320000D01*
X148390000Y-56520000D02*
X148890000Y-55620000D01*
X149390000Y-55520000D02*
X148390000Y-55520000D01*
X149400000Y-67390000D02*
X148400000Y-67390000D01*
X148900000Y-66490000D02*
X149400000Y-67390000D01*
X149650000Y-64190000D02*
X148150000Y-64190000D01*
X148400000Y-67390000D02*
X148900000Y-66490000D01*
X149400000Y-66390000D02*
X148400000Y-66390000D01*
X148150000Y-64190000D02*
X148150000Y-69590000D01*
X149650000Y-69590000D02*
X149650000Y-64190000D01*
X148150000Y-69590000D02*
X149650000Y-69590000D01*
X95730000Y-73840000D02*
X94230000Y-73840000D01*
X95730000Y-79240000D02*
X95730000Y-73840000D01*
X94480000Y-77040000D02*
X94980000Y-76140000D01*
X94980000Y-76140000D02*
X95480000Y-77040000D01*
X95480000Y-76040000D02*
X94480000Y-76040000D01*
X94230000Y-73840000D02*
X94230000Y-79240000D01*
X94230000Y-79240000D02*
X95730000Y-79240000D01*
X95480000Y-77040000D02*
X94480000Y-77040000D01*
X112280000Y-71325000D02*
X112280000Y-76725000D01*
X113530000Y-73525000D02*
X112530000Y-73525000D01*
X112530000Y-74525000D02*
X113030000Y-73625000D01*
X113780000Y-76725000D02*
X113780000Y-71325000D01*
X112280000Y-76725000D02*
X113780000Y-76725000D01*
X113030000Y-73625000D02*
X113530000Y-74525000D01*
X113780000Y-71325000D02*
X112280000Y-71325000D01*
X113530000Y-74525000D02*
X112530000Y-74525000D01*
X131670000Y-65660000D02*
X130170000Y-65660000D01*
X130920000Y-67960000D02*
X131420000Y-68860000D01*
X131670000Y-71060000D02*
X131670000Y-65660000D01*
X130420000Y-68860000D02*
X130920000Y-67960000D01*
X131420000Y-67860000D02*
X130420000Y-67860000D01*
X130170000Y-71060000D02*
X131670000Y-71060000D01*
X130170000Y-65660000D02*
X130170000Y-71060000D01*
X131420000Y-68860000D02*
X130420000Y-68860000D01*
X158570000Y-69390000D02*
X158570000Y-70390000D01*
X160770000Y-69140000D02*
X155370000Y-69140000D01*
X158570000Y-70390000D02*
X157670000Y-69890000D01*
X157570000Y-69390000D02*
X157570000Y-70390000D01*
X160770000Y-70640000D02*
X160770000Y-69140000D01*
X157670000Y-69890000D02*
X158570000Y-69390000D01*
X155370000Y-70640000D02*
X160770000Y-70640000D01*
X155370000Y-69140000D02*
X155370000Y-70640000D01*
X148200000Y-79375000D02*
X149700000Y-79375000D01*
X148950000Y-76275000D02*
X149450000Y-77175000D01*
X149700000Y-79375000D02*
X149700000Y-73975000D01*
X148200000Y-73975000D02*
X148200000Y-79375000D01*
X149450000Y-77175000D02*
X148450000Y-77175000D01*
X149450000Y-76175000D02*
X148450000Y-76175000D01*
X148450000Y-77175000D02*
X148950000Y-76275000D01*
X149700000Y-73975000D02*
X148200000Y-73975000D01*
X94480000Y-94075000D02*
X94980000Y-94975000D01*
X93730000Y-91775000D02*
X93730000Y-97175000D01*
X93980000Y-94975000D02*
X94480000Y-94075000D01*
X94980000Y-94975000D02*
X93980000Y-94975000D01*
X95230000Y-91775000D02*
X93730000Y-91775000D01*
X94980000Y-93975000D02*
X93980000Y-93975000D01*
X95230000Y-97175000D02*
X95230000Y-91775000D01*
X93730000Y-97175000D02*
X95230000Y-97175000D01*
X113530000Y-93525000D02*
X112530000Y-93525000D01*
X112530000Y-93525000D02*
X113030000Y-92625000D01*
X113030000Y-92625000D02*
X113530000Y-93525000D01*
X113780000Y-90325000D02*
X112280000Y-90325000D01*
X113780000Y-95725000D02*
X113780000Y-90325000D01*
X112280000Y-90325000D02*
X112280000Y-95725000D01*
X113530000Y-92525000D02*
X112530000Y-92525000D01*
X112280000Y-95725000D02*
X113780000Y-95725000D01*
X131640000Y-83880000D02*
X131640000Y-78480000D01*
X130890000Y-80780000D02*
X131390000Y-81680000D01*
X130140000Y-83880000D02*
X131640000Y-83880000D01*
X131640000Y-78480000D02*
X130140000Y-78480000D01*
X131390000Y-81680000D02*
X130390000Y-81680000D01*
X130390000Y-81680000D02*
X130890000Y-80780000D01*
X131390000Y-80680000D02*
X130390000Y-80680000D01*
X130140000Y-78480000D02*
X130140000Y-83880000D01*
X160150000Y-86160000D02*
X154750000Y-86160000D01*
X154750000Y-87660000D02*
X160150000Y-87660000D01*
X156950000Y-86410000D02*
X156950000Y-87410000D01*
X157950000Y-86410000D02*
X157950000Y-87410000D01*
X154750000Y-86160000D02*
X154750000Y-87660000D01*
X160150000Y-87660000D02*
X160150000Y-86160000D01*
X157950000Y-87410000D02*
X157050000Y-86910000D01*
X157050000Y-86910000D02*
X157950000Y-86410000D01*
X149800000Y-84540000D02*
X148300000Y-84540000D01*
X148300000Y-89940000D02*
X149800000Y-89940000D01*
X149050000Y-86840000D02*
X149550000Y-87740000D01*
X149800000Y-89940000D02*
X149800000Y-84540000D01*
X148300000Y-84540000D02*
X148300000Y-89940000D01*
X149550000Y-87740000D02*
X148550000Y-87740000D01*
X148550000Y-87740000D02*
X149050000Y-86840000D01*
X149550000Y-86740000D02*
X148550000Y-86740000D01*
X141970000Y-85230000D02*
X141970000Y-83730000D01*
X136570000Y-85230000D02*
X141970000Y-85230000D01*
X136570000Y-83730000D02*
X136570000Y-85230000D01*
X141970000Y-83730000D02*
X136570000Y-83730000D01*
X139770000Y-84980000D02*
X138870000Y-84480000D01*
X139770000Y-83980000D02*
X139770000Y-84980000D01*
X138870000Y-84480000D02*
X139770000Y-83980000D01*
X138770000Y-83980000D02*
X138770000Y-84980000D01*
X130910000Y-93670000D02*
X131410000Y-94570000D01*
X130410000Y-94570000D02*
X130910000Y-93670000D01*
X130160000Y-96770000D02*
X131660000Y-96770000D01*
X131410000Y-93570000D02*
X130410000Y-93570000D01*
X130160000Y-91370000D02*
X130160000Y-96770000D01*
X131660000Y-96770000D02*
X131660000Y-91370000D01*
X131660000Y-91370000D02*
X130160000Y-91370000D01*
X131410000Y-94570000D02*
X130410000Y-94570000D01*
X148300000Y-94420000D02*
X148300000Y-99820000D01*
X149800000Y-94420000D02*
X148300000Y-94420000D01*
X149050000Y-96720000D02*
X149550000Y-97620000D01*
X148550000Y-97620000D02*
X149050000Y-96720000D01*
X149800000Y-99820000D02*
X149800000Y-94420000D01*
X149550000Y-96620000D02*
X148550000Y-96620000D01*
X149550000Y-97620000D02*
X148550000Y-97620000D01*
X148300000Y-99820000D02*
X149800000Y-99820000D01*
X187960000Y-95420000D02*
X187960000Y-101420000D01*
X175960000Y-95420000D02*
X187960000Y-95420000D01*
X187960000Y-101420000D02*
X175960000Y-101420000D01*
X175960000Y-101420000D02*
X175960000Y-95420000D01*
X67460000Y-74850000D02*
X67460000Y-73850000D01*
X70660000Y-73600000D02*
X65260000Y-73600000D01*
X68360000Y-74350000D02*
X67460000Y-74850000D01*
X68460000Y-74850000D02*
X68460000Y-73850000D01*
X65260000Y-75100000D02*
X70660000Y-75100000D01*
X65260000Y-73600000D02*
X65260000Y-75100000D01*
X70660000Y-75100000D02*
X70660000Y-73600000D01*
X67460000Y-73850000D02*
X68360000Y-74350000D01*
X70750000Y-91800000D02*
X70750000Y-90300000D01*
X67550000Y-90550000D02*
X68450000Y-91050000D01*
X70750000Y-90300000D02*
X65350000Y-90300000D01*
X67550000Y-91550000D02*
X67550000Y-90550000D01*
X68550000Y-91550000D02*
X68550000Y-90550000D01*
X65350000Y-90300000D02*
X65350000Y-91800000D01*
X65350000Y-91800000D02*
X70750000Y-91800000D01*
X68450000Y-91050000D02*
X67550000Y-91550000D01*
X182820000Y-88170000D02*
X182820000Y-90710000D01*
X182820000Y-90710000D02*
X172660000Y-90710000D01*
X172660000Y-88170000D02*
X182820000Y-88170000D01*
X172660000Y-90710000D02*
X172660000Y-88170000D01*
X59320000Y-63020000D02*
X59820000Y-62120000D01*
X60570000Y-59820000D02*
X59070000Y-59820000D01*
X60570000Y-65220000D02*
X60570000Y-59820000D01*
X60320000Y-63020000D02*
X59320000Y-63020000D01*
X59820000Y-62120000D02*
X60320000Y-63020000D01*
X59070000Y-59820000D02*
X59070000Y-65220000D01*
X60320000Y-62020000D02*
X59320000Y-62020000D01*
X59070000Y-65220000D02*
X60570000Y-65220000D01*
X177369000Y-85667000D02*
X175591000Y-85667000D01*
X175591000Y-87953000D02*
X177369000Y-87953000D01*
X177369000Y-87953000D02*
X177369000Y-85667000D01*
X175591000Y-85667000D02*
X175591000Y-87953000D01*
X173041000Y-85696600D02*
X173041000Y-87982600D01*
X174819000Y-87982600D02*
X174819000Y-85696600D01*
X173041000Y-87982600D02*
X174819000Y-87982600D01*
X174819000Y-85696600D02*
X173041000Y-85696600D01*
X180751000Y-85617000D02*
X180751000Y-87903000D01*
X182529000Y-85617000D02*
X180751000Y-85617000D01*
X182529000Y-87903000D02*
X182529000Y-85617000D01*
X180751000Y-87903000D02*
X182529000Y-87903000D01*
X178171000Y-87923000D02*
X179949000Y-87923000D01*
X178171000Y-85637000D02*
X178171000Y-87923000D01*
X179949000Y-85637000D02*
X178171000Y-85637000D01*
X179949000Y-87923000D02*
X179949000Y-85637000D01*
D11*
X187181000Y-79822000D02*
X169181000Y-79822000D01*
X187181000Y-56322000D02*
X187181000Y-79822000D01*
X169181000Y-79822000D02*
X169181000Y-56322000D01*
X169181000Y-56322000D02*
X187181000Y-56322000D01*
M02*
