G04 #@! TF.GenerationSoftware,KiCad,Pcbnew,(6.0.7)*
G04 #@! TF.CreationDate,2022-09-10T18:50:33+02:00*
G04 #@! TF.ProjectId,chococorne,63686f63-6f63-46f7-926e-652e6b696361,2.1*
G04 #@! TF.SameCoordinates,Original*
G04 #@! TF.FileFunction,Soldermask,Top*
G04 #@! TF.FilePolarity,Negative*
%FSLAX46Y46*%
G04 Gerber Fmt 4.6, Leading zero omitted, Abs format (unit mm)*
G04 Created by KiCad (PCBNEW (6.0.7)) date 2022-09-10 18:50:33*
%MOMM*%
%LPD*%
G01*
G04 APERTURE LIST*
G04 Aperture macros list*
%AMRoundRect*
0 Rectangle with rounded corners*
0 $1 Rounding radius*
0 $2 $3 $4 $5 $6 $7 $8 $9 X,Y pos of 4 corners*
0 Add a 4 corners polygon primitive as box body*
4,1,4,$2,$3,$4,$5,$6,$7,$8,$9,$2,$3,0*
0 Add four circle primitives for the rounded corners*
1,1,$1+$1,$2,$3*
1,1,$1+$1,$4,$5*
1,1,$1+$1,$6,$7*
1,1,$1+$1,$8,$9*
0 Add four rect primitives between the rounded corners*
20,1,$1+$1,$2,$3,$4,$5,0*
20,1,$1+$1,$4,$5,$6,$7,0*
20,1,$1+$1,$6,$7,$8,$9,0*
20,1,$1+$1,$8,$9,$2,$3,0*%
%AMHorizOval*
0 Thick line with rounded ends*
0 $1 width*
0 $2 $3 position (X,Y) of the first rounded end (center of the circle)*
0 $4 $5 position (X,Y) of the second rounded end (center of the circle)*
0 Add line between two ends*
20,1,$1,$2,$3,$4,$5,0*
0 Add two circle primitives to create the rounded ends*
1,1,$1,$2,$3*
1,1,$1,$4,$5*%
G04 Aperture macros list end*
%ADD10RoundRect,0.200000X-0.475000X0.650000X-0.475000X-0.650000X0.475000X-0.650000X0.475000X0.650000X0*%
%ADD11RoundRect,0.200000X-0.698500X0.698500X-0.698500X-0.698500X0.698500X-0.698500X0.698500X0.698500X0*%
%ADD12C,1.797000*%
%ADD13RoundRect,0.200000X-0.650000X-0.475000X0.650000X-0.475000X0.650000X0.475000X-0.650000X0.475000X0*%
%ADD14RoundRect,0.200000X-0.698500X-0.698500X0.698500X-0.698500X0.698500X0.698500X-0.698500X0.698500X0*%
%ADD15C,1.600000*%
%ADD16O,2.900000X2.100000*%
%ADD17O,1.400000X6.300000*%
%ADD18O,0.700000X6.500000*%
%ADD19O,12.250000X6.300000*%
%ADD20O,5.100000X1.400000*%
%ADD21O,12.500000X0.700000*%
%ADD22O,5.100000X0.700000*%
%ADD23O,0.700000X1.600000*%
%ADD24C,2.000000*%
%ADD25HorizOval,0.700000X-0.750575X-2.801185X0.750575X2.801185X0*%
%ADD26HorizOval,0.700000X-5.698962X1.527032X5.698962X-1.527032X0*%
%ADD27HorizOval,6.300000X-2.873629X0.769987X2.873629X-0.769987X0*%
%ADD28HorizOval,1.400000X0.634107X2.366518X-0.634107X-2.366518X0*%
%ADD29HorizOval,1.400000X-1.786963X0.478815X1.786963X-0.478815X0*%
%ADD30HorizOval,0.700000X-0.116469X-0.434667X0.116469X0.434667X0*%
%ADD31HorizOval,0.700000X-2.125037X0.569402X2.125037X-0.569402X0*%
%ADD32HorizOval,1.400000X-2.121762X1.225000X2.121762X-1.225000X0*%
%ADD33HorizOval,0.700000X2.511474X-1.450000X-2.511474X1.450000X0*%
%ADD34HorizOval,0.700000X-2.950000X-5.109550X2.950000X5.109550X0*%
%ADD35HorizOval,6.300000X-1.487500X-2.576426X1.487500X2.576426X0*%
%ADD36HorizOval,1.400000X-0.925000X-1.602147X0.925000X1.602147X0*%
%ADD37HorizOval,0.700000X-1.100000X-1.905256X1.100000X1.905256X0*%
%ADD38HorizOval,0.700000X0.389711X-0.225000X-0.389711X0.225000X0*%
%ADD39RoundRect,0.200000X0.698500X0.698500X-0.698500X0.698500X-0.698500X-0.698500X0.698500X-0.698500X0*%
%ADD40RoundRect,0.200000X0.650000X0.475000X-0.650000X0.475000X-0.650000X-0.475000X0.650000X-0.475000X0*%
%ADD41RoundRect,0.200000X-0.571500X0.317500X-0.571500X-0.317500X0.571500X-0.317500X0.571500X0.317500X0*%
%ADD42C,4.400000*%
G04 APERTURE END LIST*
D10*
X94750000Y-62265000D03*
D11*
X94750000Y-60230000D03*
D10*
X94750000Y-65815000D03*
D12*
X94750000Y-67850000D03*
D11*
X113030000Y-52070000D03*
D10*
X113030000Y-54105000D03*
D12*
X113030000Y-59690000D03*
D10*
X113030000Y-57655000D03*
D11*
X130810000Y-52070000D03*
D10*
X130810000Y-54105000D03*
D12*
X130810000Y-59690000D03*
D10*
X130810000Y-57655000D03*
D11*
X148890000Y-52210000D03*
D10*
X148890000Y-54245000D03*
D12*
X148890000Y-59830000D03*
D10*
X148890000Y-57795000D03*
D11*
X148900000Y-63080000D03*
D10*
X148900000Y-65115000D03*
X148900000Y-68665000D03*
D12*
X148900000Y-70700000D03*
D11*
X94980000Y-72730000D03*
D10*
X94980000Y-74765000D03*
D12*
X94980000Y-80350000D03*
D10*
X94980000Y-78315000D03*
X113030000Y-72250000D03*
D11*
X113030000Y-70215000D03*
D10*
X113030000Y-75800000D03*
D12*
X113030000Y-77835000D03*
D11*
X130920000Y-64550000D03*
D10*
X130920000Y-66585000D03*
X130920000Y-70135000D03*
D12*
X130920000Y-72170000D03*
D13*
X156295000Y-69890000D03*
D14*
X154260000Y-69890000D03*
D13*
X159845000Y-69890000D03*
D12*
X161880000Y-69890000D03*
D11*
X148950000Y-72865000D03*
D10*
X148950000Y-74900000D03*
D12*
X148950000Y-80485000D03*
D10*
X148950000Y-78450000D03*
X94480000Y-92700000D03*
D11*
X94480000Y-90665000D03*
D12*
X94480000Y-98285000D03*
D10*
X94480000Y-96250000D03*
D11*
X113030000Y-89215000D03*
D10*
X113030000Y-91250000D03*
X113030000Y-94800000D03*
D12*
X113030000Y-96835000D03*
D11*
X130890000Y-77370000D03*
D10*
X130890000Y-79405000D03*
X130890000Y-82955000D03*
D12*
X130890000Y-84990000D03*
D13*
X155675000Y-86910000D03*
D14*
X153640000Y-86910000D03*
D12*
X161260000Y-86910000D03*
D13*
X159225000Y-86910000D03*
D10*
X149050000Y-85465000D03*
D11*
X149050000Y-83430000D03*
D12*
X149050000Y-91050000D03*
D10*
X149050000Y-89015000D03*
D14*
X135460000Y-84480000D03*
D13*
X137495000Y-84480000D03*
X141045000Y-84480000D03*
D12*
X143080000Y-84480000D03*
D11*
X130910000Y-90260000D03*
D10*
X130910000Y-92295000D03*
X130910000Y-95845000D03*
D12*
X130910000Y-97880000D03*
D10*
X149050000Y-95345000D03*
D11*
X149050000Y-93310000D03*
D12*
X149050000Y-100930000D03*
D10*
X149050000Y-98895000D03*
D15*
X186460000Y-100170000D03*
X179460000Y-98420000D03*
X186460000Y-98420000D03*
X179460000Y-100170000D03*
D16*
X176160000Y-98070000D03*
X176160000Y-100520000D03*
X184660000Y-96320000D03*
X184660000Y-102270000D03*
X181660000Y-102270000D03*
X181660000Y-96320000D03*
X177660000Y-102270000D03*
X177660000Y-96320000D03*
D17*
X81710000Y-65580000D03*
X80550000Y-65580000D03*
D18*
X91810000Y-65580000D03*
D17*
X81320000Y-65580000D03*
D19*
X85910000Y-65580000D03*
D20*
X85910000Y-69080000D03*
D18*
X80010000Y-65580000D03*
D17*
X91270000Y-65580000D03*
X90500000Y-65580000D03*
D21*
X85910000Y-62680000D03*
D22*
X85910000Y-69530000D03*
D23*
X83710000Y-69080000D03*
D17*
X90110000Y-65580000D03*
D21*
X85910000Y-68480000D03*
D23*
X88110000Y-69080000D03*
D24*
X90490000Y-70680000D03*
X81330000Y-70680000D03*
X83910000Y-70980000D03*
X87910000Y-70980000D03*
X91210000Y-60830000D03*
X80610000Y-60830000D03*
D23*
X106110000Y-62520000D03*
D19*
X103910000Y-59020000D03*
D17*
X109270000Y-59020000D03*
X98550000Y-59020000D03*
D18*
X109810000Y-59020000D03*
D20*
X103910000Y-62520000D03*
D17*
X108110000Y-59020000D03*
X99320000Y-59020000D03*
D21*
X103910000Y-56120000D03*
D18*
X98010000Y-59020000D03*
D17*
X108500000Y-59020000D03*
X99710000Y-59020000D03*
D23*
X101710000Y-62520000D03*
D22*
X103910000Y-62970000D03*
D21*
X103910000Y-61920000D03*
D24*
X108490000Y-64120000D03*
X99330000Y-64120000D03*
X105910000Y-64420000D03*
X101910000Y-64420000D03*
X109210000Y-54270000D03*
X98610000Y-54270000D03*
D17*
X127270000Y-56660000D03*
D18*
X127810000Y-56660000D03*
D19*
X121910000Y-56660000D03*
D17*
X117710000Y-56660000D03*
X116550000Y-56660000D03*
D22*
X121910000Y-60610000D03*
D17*
X126110000Y-56660000D03*
D21*
X121910000Y-53760000D03*
X121910000Y-59560000D03*
D17*
X117320000Y-56660000D03*
D18*
X116010000Y-56660000D03*
D17*
X126500000Y-56660000D03*
D23*
X124110000Y-60160000D03*
X119710000Y-60160000D03*
D20*
X121910000Y-60160000D03*
D24*
X126490000Y-61760000D03*
X117330000Y-61760000D03*
X119910000Y-62060000D03*
X123910000Y-62060000D03*
X127210000Y-51910000D03*
X116610000Y-51910000D03*
D17*
X144500000Y-59020000D03*
D21*
X139910000Y-61920000D03*
D22*
X139910000Y-62970000D03*
D23*
X137710000Y-62520000D03*
D18*
X134010000Y-59020000D03*
D17*
X135320000Y-59020000D03*
X134550000Y-59020000D03*
D20*
X139910000Y-62520000D03*
D23*
X142110000Y-62520000D03*
D18*
X145810000Y-59020000D03*
D21*
X139910000Y-56120000D03*
D17*
X144110000Y-59020000D03*
D19*
X139910000Y-59020000D03*
D17*
X145270000Y-59020000D03*
X135710000Y-59020000D03*
D24*
X135330000Y-64120000D03*
X144490000Y-64120000D03*
X141910000Y-64420000D03*
X137910000Y-64420000D03*
X145210000Y-54270000D03*
X134610000Y-54270000D03*
D19*
X157910000Y-61400000D03*
D17*
X162110000Y-61400000D03*
D20*
X157910000Y-64900000D03*
D17*
X152550000Y-61400000D03*
D18*
X152010000Y-61400000D03*
D21*
X157910000Y-64300000D03*
D17*
X153710000Y-61400000D03*
D23*
X155710000Y-64900000D03*
D22*
X157910000Y-65350000D03*
D18*
X163810000Y-61400000D03*
D23*
X160110000Y-64900000D03*
D17*
X153320000Y-61400000D03*
X162500000Y-61400000D03*
X163270000Y-61400000D03*
D21*
X157910000Y-58500000D03*
D24*
X162490000Y-66500000D03*
X153330000Y-66500000D03*
X159910000Y-66800000D03*
X155910000Y-66800000D03*
X163210000Y-56650000D03*
X152610000Y-56650000D03*
D18*
X91810000Y-82580000D03*
D21*
X85910000Y-79680000D03*
D17*
X90110000Y-82580000D03*
X81710000Y-82580000D03*
X80550000Y-82580000D03*
X91270000Y-82580000D03*
D18*
X80010000Y-82580000D03*
D21*
X85910000Y-85480000D03*
D17*
X90500000Y-82580000D03*
X81320000Y-82580000D03*
D19*
X85910000Y-82580000D03*
D23*
X83710000Y-86080000D03*
D20*
X85910000Y-86080000D03*
D23*
X88110000Y-86080000D03*
D22*
X85910000Y-86530000D03*
D24*
X90490000Y-87680000D03*
X81330000Y-87680000D03*
X83910000Y-87980000D03*
X87910000Y-87980000D03*
X91210000Y-77830000D03*
X80610000Y-77830000D03*
D22*
X103910000Y-79970000D03*
D21*
X103910000Y-73120000D03*
D19*
X103910000Y-76020000D03*
D17*
X99710000Y-76020000D03*
X108500000Y-76020000D03*
X99320000Y-76020000D03*
D20*
X103910000Y-79520000D03*
D18*
X98010000Y-76020000D03*
D17*
X108110000Y-76020000D03*
D21*
X103910000Y-78920000D03*
D23*
X101710000Y-79520000D03*
D18*
X109810000Y-76020000D03*
D23*
X106110000Y-79520000D03*
D17*
X98550000Y-76020000D03*
X109270000Y-76020000D03*
D24*
X108490000Y-81120000D03*
X99330000Y-81120000D03*
X105910000Y-81420000D03*
X101910000Y-81420000D03*
X109210000Y-71270000D03*
X98610000Y-71270000D03*
D17*
X126110000Y-73650000D03*
D23*
X124110000Y-77150000D03*
D18*
X116010000Y-73650000D03*
D22*
X121910000Y-77600000D03*
D20*
X121910000Y-77150000D03*
D17*
X117320000Y-73650000D03*
X126500000Y-73650000D03*
X116550000Y-73650000D03*
X117710000Y-73650000D03*
D19*
X121910000Y-73650000D03*
D21*
X121910000Y-70750000D03*
D18*
X127810000Y-73650000D03*
D23*
X119710000Y-77150000D03*
D17*
X127270000Y-73650000D03*
D21*
X121910000Y-76550000D03*
D24*
X126490000Y-78750000D03*
X117330000Y-78750000D03*
X119910000Y-79050000D03*
X123910000Y-79050000D03*
X127210000Y-68900000D03*
X116610000Y-68900000D03*
D17*
X144500000Y-76020000D03*
D21*
X139910000Y-73120000D03*
D17*
X135710000Y-76020000D03*
D18*
X145810000Y-76020000D03*
D17*
X144110000Y-76020000D03*
D21*
X139910000Y-78920000D03*
D18*
X134010000Y-76020000D03*
D20*
X139910000Y-79520000D03*
D23*
X137710000Y-79520000D03*
X142110000Y-79520000D03*
D17*
X134550000Y-76020000D03*
D22*
X139910000Y-79970000D03*
D17*
X135320000Y-76020000D03*
X145270000Y-76020000D03*
D19*
X139910000Y-76020000D03*
D24*
X135330000Y-81120000D03*
X144490000Y-81120000D03*
X137910000Y-81420000D03*
X141910000Y-81420000D03*
X145210000Y-71270000D03*
X134610000Y-71270000D03*
D17*
X163270000Y-78400000D03*
X152550000Y-78400000D03*
D18*
X152010000Y-78400000D03*
D17*
X153320000Y-78400000D03*
D23*
X160110000Y-81900000D03*
X155710000Y-81900000D03*
D22*
X157910000Y-82350000D03*
D20*
X157910000Y-81900000D03*
D17*
X162110000Y-78400000D03*
X153710000Y-78400000D03*
D21*
X157910000Y-81300000D03*
X157910000Y-75500000D03*
D17*
X162500000Y-78400000D03*
D19*
X157910000Y-78400000D03*
D18*
X163810000Y-78400000D03*
D24*
X153330000Y-83500000D03*
X162490000Y-83500000D03*
X159910000Y-83800000D03*
X155910000Y-83800000D03*
X163210000Y-73650000D03*
X152610000Y-73650000D03*
D17*
X81710000Y-99585000D03*
D20*
X85910000Y-103085000D03*
D22*
X85910000Y-103535000D03*
D17*
X80550000Y-99585000D03*
D23*
X88110000Y-103085000D03*
D18*
X80010000Y-99585000D03*
D17*
X81320000Y-99585000D03*
D21*
X85910000Y-102485000D03*
D17*
X90500000Y-99585000D03*
X90110000Y-99585000D03*
D19*
X85910000Y-99585000D03*
D18*
X91810000Y-99585000D03*
D21*
X85910000Y-96685000D03*
D23*
X83710000Y-103085000D03*
D17*
X91270000Y-99585000D03*
D24*
X90490000Y-104685000D03*
X81330000Y-104685000D03*
X87910000Y-104985000D03*
X83910000Y-104985000D03*
X91210000Y-94835000D03*
X80610000Y-94835000D03*
D17*
X109270000Y-93025000D03*
D18*
X109810000Y-93025000D03*
D20*
X103910000Y-96525000D03*
D17*
X98550000Y-93025000D03*
D22*
X103910000Y-96975000D03*
D18*
X98010000Y-93025000D03*
D17*
X108110000Y-93025000D03*
D23*
X106110000Y-96525000D03*
D21*
X103910000Y-90125000D03*
D17*
X99320000Y-93025000D03*
X99710000Y-93025000D03*
D19*
X103910000Y-93025000D03*
D23*
X101710000Y-96525000D03*
D21*
X103910000Y-95925000D03*
D17*
X108500000Y-93025000D03*
D24*
X99330000Y-98125000D03*
X108490000Y-98125000D03*
X101910000Y-98425000D03*
X105910000Y-98425000D03*
X109210000Y-88275000D03*
X98610000Y-88275000D03*
D23*
X124110000Y-94150000D03*
D21*
X121910000Y-87750000D03*
D20*
X121910000Y-94150000D03*
D17*
X117710000Y-90650000D03*
X116550000Y-90650000D03*
X117320000Y-90650000D03*
X127270000Y-90650000D03*
D18*
X127810000Y-90650000D03*
D17*
X126110000Y-90650000D03*
D18*
X116010000Y-90650000D03*
D17*
X126500000Y-90650000D03*
D23*
X119710000Y-94150000D03*
D19*
X121910000Y-90650000D03*
D21*
X121910000Y-93550000D03*
D22*
X121910000Y-94600000D03*
D24*
X117330000Y-95750000D03*
X126490000Y-95750000D03*
X123910000Y-96050000D03*
X119910000Y-96050000D03*
X127210000Y-85900000D03*
X116610000Y-85900000D03*
D18*
X134010000Y-93025000D03*
D23*
X142110000Y-96525000D03*
D21*
X139910000Y-95925000D03*
D22*
X139910000Y-96975000D03*
D17*
X135710000Y-93025000D03*
X145270000Y-93025000D03*
X135320000Y-93025000D03*
D18*
X145810000Y-93025000D03*
D17*
X134550000Y-93025000D03*
D20*
X139910000Y-96525000D03*
D21*
X139910000Y-90125000D03*
D17*
X144500000Y-93025000D03*
D23*
X137710000Y-96525000D03*
D19*
X139910000Y-93025000D03*
D17*
X144110000Y-93025000D03*
D24*
X135330000Y-98125000D03*
X144490000Y-98125000D03*
X137910000Y-98425000D03*
X141910000Y-98425000D03*
X145210000Y-88275000D03*
X134610000Y-88275000D03*
D21*
X157910000Y-98300000D03*
D23*
X155710000Y-98900000D03*
D21*
X157910000Y-92500000D03*
D22*
X157910000Y-99350000D03*
D17*
X153320000Y-95400000D03*
D19*
X157910000Y-95400000D03*
D23*
X160110000Y-98900000D03*
D17*
X153710000Y-95400000D03*
D18*
X163810000Y-95400000D03*
X152010000Y-95400000D03*
D17*
X163270000Y-95400000D03*
X162110000Y-95400000D03*
D20*
X157910000Y-98900000D03*
D17*
X152550000Y-95400000D03*
X162500000Y-95400000D03*
D24*
X153330000Y-100500000D03*
X162490000Y-100500000D03*
X159910000Y-100800000D03*
X155910000Y-100800000D03*
X163210000Y-90650000D03*
X152610000Y-90650000D03*
D18*
X128110000Y-112990000D03*
D17*
X129810000Y-112990000D03*
X129420000Y-112990000D03*
D22*
X134010000Y-109040000D03*
D23*
X131810000Y-109490000D03*
D17*
X128650000Y-112990000D03*
D19*
X134010000Y-112990000D03*
D17*
X139370000Y-112990000D03*
D18*
X139910000Y-112990000D03*
D21*
X134010000Y-110090000D03*
D17*
X138600000Y-112990000D03*
X138210000Y-112990000D03*
D21*
X134010000Y-115890000D03*
D23*
X136210000Y-109490000D03*
D20*
X134010000Y-109490000D03*
D24*
X129430000Y-107890000D03*
X138590000Y-107890000D03*
X132010000Y-107590000D03*
X136010000Y-107590000D03*
X128710000Y-117740000D03*
X139310000Y-117740000D03*
D25*
X159758962Y-117107032D03*
D26*
X154810575Y-112778815D03*
D27*
X154060000Y-115580000D03*
D28*
X149626400Y-114392021D03*
D29*
X154965867Y-112199260D03*
D30*
X152840830Y-111629858D03*
X157090903Y-112768662D03*
D28*
X158493600Y-116767979D03*
X148882638Y-114192730D03*
X150003112Y-114492960D03*
D25*
X148361038Y-114052968D03*
D28*
X159237362Y-116967270D03*
D26*
X153309425Y-118381185D03*
D28*
X158116888Y-116667040D03*
D31*
X155082335Y-111764593D03*
D24*
X159803917Y-111839170D03*
X150956037Y-109468387D03*
X157389474Y-110881639D03*
X153525771Y-109846362D03*
X147711203Y-118796407D03*
X157950016Y-121539889D03*
D32*
X176955000Y-114814943D03*
X171980000Y-123431896D03*
X172365000Y-122765057D03*
D33*
X177610000Y-113680450D03*
D34*
X177171474Y-120240000D03*
D35*
X174660000Y-118790000D03*
D32*
X177340000Y-114148104D03*
D36*
X171628911Y-117040000D03*
D33*
X171710000Y-123899550D03*
D37*
X171239200Y-116815000D03*
D32*
X172560000Y-122427307D03*
D38*
X172728911Y-115134744D03*
X170528911Y-118945256D03*
D32*
X176760000Y-115152693D03*
D34*
X172148526Y-117340000D03*
D24*
X172533270Y-112273604D03*
X167953270Y-120206396D03*
X170983463Y-114357949D03*
X168983463Y-117822051D03*
X176123621Y-125754935D03*
X181423621Y-116575065D03*
D39*
X71770000Y-74350000D03*
D40*
X69735000Y-74350000D03*
D12*
X64150000Y-74350000D03*
D40*
X66185000Y-74350000D03*
D39*
X71860000Y-91050000D03*
D40*
X69825000Y-91050000D03*
D12*
X64240000Y-91050000D03*
D40*
X66275000Y-91050000D03*
D21*
X67910000Y-79680000D03*
D17*
X72110000Y-82580000D03*
D19*
X67910000Y-82580000D03*
D17*
X72500000Y-82580000D03*
D18*
X73810000Y-82580000D03*
D17*
X63320000Y-82580000D03*
D20*
X67910000Y-86080000D03*
D17*
X62550000Y-82580000D03*
D23*
X70110000Y-86080000D03*
D22*
X67910000Y-86530000D03*
D21*
X67910000Y-85480000D03*
D23*
X65710000Y-86080000D03*
D18*
X62010000Y-82580000D03*
D17*
X73270000Y-82580000D03*
X63710000Y-82580000D03*
D24*
X63330000Y-87680000D03*
X72490000Y-87680000D03*
X69910000Y-87980000D03*
X65910000Y-87980000D03*
X73210000Y-77830000D03*
X62610000Y-77830000D03*
D20*
X67910000Y-103100000D03*
D18*
X62010000Y-99600000D03*
D23*
X65710000Y-103100000D03*
D17*
X63320000Y-99600000D03*
X73270000Y-99600000D03*
D19*
X67910000Y-99600000D03*
D23*
X70110000Y-103100000D03*
D21*
X67910000Y-96700000D03*
D17*
X63710000Y-99600000D03*
X72500000Y-99600000D03*
X72110000Y-99600000D03*
D18*
X73810000Y-99600000D03*
D22*
X67910000Y-103550000D03*
D21*
X67910000Y-102500000D03*
D17*
X62550000Y-99600000D03*
D24*
X63330000Y-104700000D03*
X72490000Y-104700000D03*
X69910000Y-105000000D03*
X65910000Y-105000000D03*
X73210000Y-94850000D03*
X62610000Y-94850000D03*
D17*
X72500000Y-65580000D03*
X63320000Y-65580000D03*
X72110000Y-65580000D03*
D18*
X62010000Y-65580000D03*
X73810000Y-65580000D03*
D22*
X67910000Y-69530000D03*
D23*
X70110000Y-69080000D03*
D19*
X67910000Y-65580000D03*
D23*
X65710000Y-69080000D03*
D17*
X62550000Y-65580000D03*
D21*
X67910000Y-68480000D03*
X67910000Y-62680000D03*
D20*
X67910000Y-69080000D03*
D17*
X73270000Y-65580000D03*
X63710000Y-65580000D03*
D24*
X72490000Y-70680000D03*
X63330000Y-70680000D03*
X69910000Y-70980000D03*
X65910000Y-70980000D03*
X73210000Y-60830000D03*
X62610000Y-60830000D03*
D41*
X179070000Y-86279620D03*
X179070000Y-87280380D03*
D12*
X173930000Y-89440000D03*
X176470000Y-89440000D03*
X179010000Y-89440000D03*
X181550000Y-89440000D03*
D41*
X176470000Y-86299620D03*
X176470000Y-87300380D03*
X173930000Y-86329620D03*
X173930000Y-87330380D03*
X181640000Y-86270020D03*
X181640000Y-87270780D03*
D42*
X171180000Y-97630000D03*
X185680000Y-106130000D03*
D11*
X59820000Y-58710000D03*
D10*
X59820000Y-60745000D03*
D12*
X59820000Y-66330000D03*
D10*
X59820000Y-64295000D03*
D42*
X91180000Y-74180000D03*
X145020000Y-67520000D03*
X76870000Y-74150000D03*
X117820000Y-104650000D03*
X167140000Y-109200000D03*
X76870000Y-91290000D03*
X90950000Y-91280000D03*
D24*
X184150000Y-56642000D03*
X184150000Y-59182000D03*
X184150000Y-61722000D03*
X184150000Y-64262000D03*
X184150000Y-66802000D03*
X184150000Y-69342000D03*
X184150000Y-71882000D03*
X184150000Y-74422000D03*
X184150000Y-76962000D03*
X168910000Y-76962000D03*
X168910000Y-74422000D03*
X168910000Y-71882000D03*
X168910000Y-69342000D03*
X168910000Y-66802000D03*
X168910000Y-64262000D03*
X168910000Y-61722000D03*
X168910000Y-56642000D03*
X168910000Y-59182000D03*
X170561000Y-57912000D03*
X170561000Y-60452000D03*
X170561000Y-62992000D03*
X170561000Y-65532000D03*
X170561000Y-68072000D03*
X170561000Y-70612000D03*
X170561000Y-73152000D03*
X170561000Y-75692000D03*
X170561000Y-78232000D03*
X185801000Y-78232000D03*
X185801000Y-75692000D03*
X185801000Y-73152000D03*
X185801000Y-70612000D03*
X185801000Y-68072000D03*
X185801000Y-65532000D03*
X185801000Y-62992000D03*
X185801000Y-57912000D03*
X185801000Y-60452000D03*
M02*
